<mxfile host="app.diagrams.net" modified="2021-06-20T12:58:58.110Z" agent="5.0 (Windows)" etag="RkmBNneNfNkC2cv7k_yi" version="14.8.0" type="github">
  <diagram id="MwdUO_CJIg6ytkyI0lQ3" name="Page-1">
    <mxGraphModel dx="4837" dy="2600" grid="1" gridSize="10" guides="1" tooltips="1" connect="1" arrows="1" fold="1" page="1" pageScale="1" pageWidth="700" pageHeight="700" math="0" shadow="0">
      <root>
        <mxCell id="0" />
        <mxCell id="1" parent="0" />
        <mxCell id="K5vysjefRLbK3WMFSwtC-12" style="edgeStyle=orthogonalEdgeStyle;rounded=0;orthogonalLoop=1;jettySize=auto;html=1;entryX=0.499;entryY=1.001;entryDx=0;entryDy=0;entryPerimeter=0;strokeWidth=2;" edge="1" parent="1" source="4XDBY2IRk2Dw7CC_h-vi-2" target="K5vysjefRLbK3WMFSwtC-3">
          <mxGeometry relative="1" as="geometry" />
        </mxCell>
        <mxCell id="K5vysjefRLbK3WMFSwtC-13" value="&lt;font style=&quot;font-size: 20px&quot;&gt;PCI&lt;/font&gt;" style="edgeLabel;html=1;align=center;verticalAlign=middle;resizable=0;points=[];" vertex="1" connectable="0" parent="K5vysjefRLbK3WMFSwtC-12">
          <mxGeometry x="-0.1428" y="-5" relative="1" as="geometry">
            <mxPoint x="-38" y="-25" as="offset" />
          </mxGeometry>
        </mxCell>
        <mxCell id="K5vysjefRLbK3WMFSwtC-16" style="edgeStyle=orthogonalEdgeStyle;rounded=0;orthogonalLoop=1;jettySize=auto;html=1;entryX=0;entryY=0;entryDx=0;entryDy=70;entryPerimeter=0;strokeWidth=2;" edge="1" parent="1" source="4XDBY2IRk2Dw7CC_h-vi-2" target="K5vysjefRLbK3WMFSwtC-5">
          <mxGeometry relative="1" as="geometry">
            <Array as="points">
              <mxPoint y="670" />
            </Array>
          </mxGeometry>
        </mxCell>
        <mxCell id="K5vysjefRLbK3WMFSwtC-17" value="&lt;font style=&quot;font-size: 20px&quot;&gt;USB + Ethernet&lt;br&gt;&lt;/font&gt;" style="edgeLabel;html=1;align=center;verticalAlign=middle;resizable=0;points=[];" vertex="1" connectable="0" parent="K5vysjefRLbK3WMFSwtC-16">
          <mxGeometry x="-0.2392" y="-2" relative="1" as="geometry">
            <mxPoint y="-22" as="offset" />
          </mxGeometry>
        </mxCell>
        <mxCell id="4XDBY2IRk2Dw7CC_h-vi-2" value="" style="shape=cube;whiteSpace=wrap;html=1;boundedLbl=1;backgroundOutline=1;darkOpacity=0.05;darkOpacity2=0.1;" parent="1" vertex="1">
          <mxGeometry x="-350" y="150" width="720" height="400" as="geometry" />
        </mxCell>
        <mxCell id="4XDBY2IRk2Dw7CC_h-vi-3" value="&lt;div&gt;&lt;font style=&quot;font-size: 24px&quot;&gt;«device»&lt;/font&gt;&lt;/div&gt;&lt;div&gt;&lt;font style=&quot;font-size: 24px&quot;&gt;&lt;b&gt;Ubuntu-PC&lt;/b&gt;&lt;br&gt;&lt;/font&gt;&lt;/div&gt;" style="text;html=1;strokeColor=none;fillColor=none;align=center;verticalAlign=middle;whiteSpace=wrap;rounded=0;" parent="1" vertex="1">
          <mxGeometry x="-40" y="180" width="140" height="70" as="geometry" />
        </mxCell>
        <mxCell id="4XDBY2IRk2Dw7CC_h-vi-4" value="" style="shape=cube;whiteSpace=wrap;html=1;boundedLbl=1;backgroundOutline=1;darkOpacity=0.05;darkOpacity2=0.1;" parent="1" vertex="1">
          <mxGeometry x="-230" y="300" width="510" height="210" as="geometry" />
        </mxCell>
        <mxCell id="4XDBY2IRk2Dw7CC_h-vi-5" value="&lt;div&gt;&lt;font style=&quot;font-size: 24px&quot;&gt;«runtime/development Environment»&lt;/font&gt;&lt;/div&gt;&lt;div&gt;&lt;font style=&quot;font-size: 24px&quot;&gt;&lt;b&gt;CyberRT + Dev&lt;/b&gt;&lt;br&gt;&lt;/font&gt;&lt;/div&gt;" style="text;html=1;strokeColor=none;fillColor=none;align=center;verticalAlign=middle;whiteSpace=wrap;rounded=0;" parent="1" vertex="1">
          <mxGeometry x="-210" y="320" width="500" height="70" as="geometry" />
        </mxCell>
        <mxCell id="4XDBY2IRk2Dw7CC_h-vi-6" value="&lt;div&gt;&lt;font style=&quot;font-size: 24px&quot;&gt;«&lt;/font&gt;&lt;font style=&quot;font-size: 24px&quot;&gt;system»&lt;/font&gt;&lt;/div&gt;&lt;div&gt;&lt;font style=&quot;font-size: 24px&quot;&gt;&lt;b&gt;ApolloAuto&lt;/b&gt;&lt;br&gt;&lt;/font&gt;&lt;/div&gt;" style="rounded=0;whiteSpace=wrap;html=1;" parent="1" vertex="1">
          <mxGeometry x="-150" y="390" width="370" height="110" as="geometry" />
        </mxCell>
        <mxCell id="K5vysjefRLbK3WMFSwtC-10" style="edgeStyle=orthogonalEdgeStyle;rounded=0;orthogonalLoop=1;jettySize=auto;html=1;strokeWidth=2;" edge="1" parent="1" source="K5vysjefRLbK3WMFSwtC-1">
          <mxGeometry relative="1" as="geometry">
            <mxPoint x="-80" y="150" as="targetPoint" />
          </mxGeometry>
        </mxCell>
        <mxCell id="K5vysjefRLbK3WMFSwtC-1" value="&lt;div style=&quot;font-size: 24px&quot;&gt;&lt;b&gt;&lt;font style=&quot;font-size: 24px&quot;&gt;WIFI 4G&lt;/font&gt;&lt;/b&gt;&lt;/div&gt;&lt;div style=&quot;font-size: 24px&quot;&gt;&lt;b&gt;&lt;font style=&quot;font-size: 24px&quot;&gt;LTE Router&lt;br&gt;&lt;/font&gt;&lt;/b&gt;&lt;/div&gt;" style="shape=cube;whiteSpace=wrap;html=1;boundedLbl=1;backgroundOutline=1;darkOpacity=0.05;darkOpacity2=0.1;" vertex="1" parent="1">
          <mxGeometry x="-320" y="-140" width="245" height="160" as="geometry" />
        </mxCell>
        <mxCell id="K5vysjefRLbK3WMFSwtC-11" style="edgeStyle=orthogonalEdgeStyle;rounded=0;orthogonalLoop=1;jettySize=auto;html=1;entryX=0.615;entryY=-0.012;entryDx=0;entryDy=0;entryPerimeter=0;strokeWidth=2;" edge="1" parent="1" source="K5vysjefRLbK3WMFSwtC-2" target="4XDBY2IRk2Dw7CC_h-vi-2">
          <mxGeometry relative="1" as="geometry" />
        </mxCell>
        <mxCell id="K5vysjefRLbK3WMFSwtC-2" value="&lt;b&gt;&lt;font style=&quot;font-size: 24px&quot;&gt;Minotor, Tastatur, Maus&lt;br&gt;&lt;/font&gt;&lt;/b&gt;" style="shape=cube;whiteSpace=wrap;html=1;boundedLbl=1;backgroundOutline=1;darkOpacity=0.05;darkOpacity2=0.1;" vertex="1" parent="1">
          <mxGeometry x="80" y="-140" width="245" height="160" as="geometry" />
        </mxCell>
        <mxCell id="K5vysjefRLbK3WMFSwtC-3" value="&lt;div style=&quot;font-size: 24px&quot;&gt;&lt;b&gt;&lt;font style=&quot;font-size: 24px&quot;&gt;ESD CAN&lt;/font&gt;&lt;/b&gt;&lt;/div&gt;&lt;div style=&quot;font-size: 24px&quot;&gt;&lt;b&gt;&lt;font style=&quot;font-size: 24px&quot;&gt;Card 4CH&lt;br&gt;&lt;/font&gt;&lt;/b&gt;&lt;/div&gt;" style="shape=cube;whiteSpace=wrap;html=1;boundedLbl=1;backgroundOutline=1;darkOpacity=0.05;darkOpacity2=0.1;" vertex="1" parent="1">
          <mxGeometry x="580" y="60" width="245" height="160" as="geometry" />
        </mxCell>
        <mxCell id="K5vysjefRLbK3WMFSwtC-15" style="edgeStyle=orthogonalEdgeStyle;rounded=0;orthogonalLoop=1;jettySize=auto;html=1;strokeWidth=2;" edge="1" parent="1" source="K5vysjefRLbK3WMFSwtC-4" target="K5vysjefRLbK3WMFSwtC-3">
          <mxGeometry relative="1" as="geometry" />
        </mxCell>
        <mxCell id="K5vysjefRLbK3WMFSwtC-4" value="&lt;font style=&quot;font-size: 24px&quot;&gt;&lt;b&gt;CANBus des Fahrzeugs&lt;br&gt;&lt;/b&gt;&lt;/font&gt;" style="shape=cube;whiteSpace=wrap;html=1;boundedLbl=1;backgroundOutline=1;darkOpacity=0.05;darkOpacity2=0.1;" vertex="1" parent="1">
          <mxGeometry x="580" y="-190" width="245" height="160" as="geometry" />
        </mxCell>
        <mxCell id="K5vysjefRLbK3WMFSwtC-5" value="&lt;b&gt;&lt;font style=&quot;font-size: 24px&quot;&gt;Sensorik&lt;/font&gt;&lt;/b&gt;" style="shape=cube;whiteSpace=wrap;html=1;boundedLbl=1;backgroundOutline=1;darkOpacity=0.05;darkOpacity2=0.1;" vertex="1" parent="1">
          <mxGeometry x="520" y="600" width="245" height="160" as="geometry" />
        </mxCell>
        <mxCell id="K5vysjefRLbK3WMFSwtC-19" style="edgeStyle=orthogonalEdgeStyle;rounded=0;orthogonalLoop=1;jettySize=auto;html=1;strokeWidth=2;fillColor=#ffe6cc;strokeColor=#d79b00;" edge="1" parent="1" source="K5vysjefRLbK3WMFSwtC-6">
          <mxGeometry relative="1" as="geometry">
            <mxPoint x="-353" y="340" as="targetPoint" />
          </mxGeometry>
        </mxCell>
        <mxCell id="K5vysjefRLbK3WMFSwtC-20" style="edgeStyle=orthogonalEdgeStyle;rounded=0;orthogonalLoop=1;jettySize=auto;html=1;entryX=0;entryY=0;entryDx=0;entryDy=70;entryPerimeter=0;strokeWidth=2;fillColor=#ffe6cc;strokeColor=#d79b00;" edge="1" parent="1" source="K5vysjefRLbK3WMFSwtC-6" target="K5vysjefRLbK3WMFSwtC-1">
          <mxGeometry relative="1" as="geometry">
            <Array as="points">
              <mxPoint x="-460" y="340" />
              <mxPoint x="-460" y="-70" />
            </Array>
          </mxGeometry>
        </mxCell>
        <mxCell id="K5vysjefRLbK3WMFSwtC-21" style="edgeStyle=orthogonalEdgeStyle;rounded=0;orthogonalLoop=1;jettySize=auto;html=1;entryX=0;entryY=0;entryDx=132.5;entryDy=160;entryPerimeter=0;strokeWidth=2;fillColor=#ffe6cc;strokeColor=#d79b00;" edge="1" parent="1" source="K5vysjefRLbK3WMFSwtC-6" target="K5vysjefRLbK3WMFSwtC-5">
          <mxGeometry relative="1" as="geometry">
            <Array as="points">
              <mxPoint x="-460" y="340" />
              <mxPoint x="-460" y="780" />
              <mxPoint x="652" y="780" />
            </Array>
          </mxGeometry>
        </mxCell>
        <mxCell id="K5vysjefRLbK3WMFSwtC-6" value="&lt;b&gt;&lt;font style=&quot;font-size: 24px&quot;&gt;12V Gleichstrom Verteilerblock&lt;br&gt;&lt;/font&gt;&lt;/b&gt;" style="shape=cube;whiteSpace=wrap;html=1;boundedLbl=1;backgroundOutline=1;darkOpacity=0.05;darkOpacity2=0.1;" vertex="1" parent="1">
          <mxGeometry x="-750" y="260" width="245" height="160" as="geometry" />
        </mxCell>
        <mxCell id="K5vysjefRLbK3WMFSwtC-18" style="edgeStyle=orthogonalEdgeStyle;rounded=0;orthogonalLoop=1;jettySize=auto;html=1;strokeWidth=2;fillColor=#ffe6cc;strokeColor=#d79b00;" edge="1" parent="1" source="K5vysjefRLbK3WMFSwtC-7" target="K5vysjefRLbK3WMFSwtC-6">
          <mxGeometry relative="1" as="geometry" />
        </mxCell>
        <mxCell id="K5vysjefRLbK3WMFSwtC-7" value="&lt;b&gt;&lt;font style=&quot;font-size: 24px&quot;&gt;Fahrzeugbatterie&lt;/font&gt;&lt;/b&gt;" style="shape=cube;whiteSpace=wrap;html=1;boundedLbl=1;backgroundOutline=1;darkOpacity=0.05;darkOpacity2=0.1;" vertex="1" parent="1">
          <mxGeometry x="-1060" y="260" width="245" height="160" as="geometry" />
        </mxCell>
      </root>
    </mxGraphModel>
  </diagram>
</mxfile>
